<?xml version="1.0" standalone="no"?><!DOCTYPE svg PUBLIC "-//W3C//DTD SVG 1.1//EN" "http://www.w3.org/Graphics/SVG/1.1/DTD/svg11.dtd"><svg t="1568710300729" class="icon" viewBox="0 0 1024 1024" version="1.1" xmlns="http://www.w3.org/2000/svg" p-id="20667" width="32" height="32" xmlns:xlink="http://www.w3.org/1999/xlink"><defs><style type="text/css"></style></defs><path d="M940.418844 330.979556Q903.657244 245.839644 840.817778 183.182222T693.543822 83.467378Q609.018311 46.876444 512.512 46.774044T330.979556 83.581156q-84.992 36.898133-147.797334 99.657955T83.581156 331.093333q-36.738844 84.992-36.795734 181.441423t36.795734 181.020444Q120.342756 778.046578 183.182222 840.817778t147.842845 99.555555Q416.108089 977.351111 512.512 977.351111t181.031822-36.909511Q778.046578 903.668622 840.817778 840.817778t99.555555-147.319467q36.750222-84.514133 36.795734-181.020444t-36.750223-181.498311z m-479.175111-72.988445c0-14.893511 4.960711-26.885689 14.882134-35.885511s22.027378-13.437156 36.283733-13.437156 26.362311 4.653511 36.283733 13.960534 14.893511 21.4016 14.893511 36.283733l-0.932977 310.875022c0 14.882133-4.858311 27.397689-14.370134 37.626311S526.791111 622.819556 512.4096 622.819556a48.685511 48.685511 0 0 1-36.283733-15.405512q-14.882133-15.348622-14.882134-37.626311z m97.28 538.305422a62.964622 62.964622 0 0 1-46.114133 19.126045c-17.988267 0-33.496178-6.417067-46.512356-19.126045s-19.547022-28.125867-19.547022-46.011733 6.485333-33.28 19.547022-46.000356a64.250311 64.250311 0 0 1 46.512356-19.023644 65.058133 65.058133 0 0 1 46.114133 111.035733z m0 0" p-id="20668"></path></svg>