<?xml version="1.0" standalone="no"?><!DOCTYPE svg PUBLIC "-//W3C//DTD SVG 1.1//EN" "http://www.w3.org/Graphics/SVG/1.1/DTD/svg11.dtd"><svg t="1568702195323" class="icon" viewBox="0 0 1024 1024" version="1.1" xmlns="http://www.w3.org/2000/svg" p-id="3561" width="32" height="32" xmlns:xlink="http://www.w3.org/1999/xlink"><defs><style type="text/css"></style></defs><path d="M767.7 384.1v-63.9c0-140.6-115.1-255.7-255.7-255.7S256.3 179.6 256.3 320.2v63.9c-70.3 0-127.9 57.5-127.9 127.9v319.6c0 70.3 57.5 127.9 127.9 127.9h511.4c70.3 0 127.9-57.5 127.9-127.9V512c0-70.3-57.6-127.9-127.9-127.9z m-447.5-63.9c0-108.7 83.1-191.8 191.8-191.8s191.8 83.1 191.8 191.8v63.9H320.2v-63.9z m511.4 511.4c0 38.4-25.6 63.9-63.9 63.9H256.3c-38.4 0-63.9-25.6-63.9-63.9V512c0-38.4 25.6-63.9 63.9-63.9h511.4c38.4 0 63.9 25.6 63.9 63.9v319.6z" p-id="3562"></path><path d="M512 563.1c-35.3 0-63.9 28.6-63.9 63.9 0 23.7 12.9 44.3 32 55.4v66.1c0 19.2 12.8 32 32 32s32-12.8 32-32v-66.1c19.1-11.1 32-31.7 32-55.4-0.2-35.2-28.8-63.9-64.1-63.9z" p-id="3563"></path></svg>